<?xml version="1.0" encoding="UTF-8"?>
<svg width="20px" height="20px" viewBox="0 0 20 20" version="1.1" xmlns="http://www.w3.org/2000/svg" xmlns:xlink="http://www.w3.org/1999/xlink">
    <!-- Generator: Sketch 48 (47235) - http://www.bohemiancoding.com/sketch -->
    <title>Shape</title>
    <desc>Created with Sketch.</desc>
    <defs></defs>
    <g id="Page-1" stroke="none" stroke-width="1" fill="none" fill-rule="evenodd">
        <g id="arrow-up_icon-icons.com_73669" fill="#FFFFFF" fill-rule="nonzero">
            <path d="M19.5249293,9.1108818 L11.1680283,0.753980778 C10.8514044,0.437311939 10.4624363,0.279 10.000045,0.279 C9.52942551,0.279 9.14414434,0.437311939 8.84465107,0.753980778 L0.487750046,9.1108818 C0.162538386,9.4360485 0,9.82560108 0,10.2791798 C0,10.7241708 0.162718235,11.1091373 0.487750046,11.4343939 L1.45043591,12.3969898 C1.75860689,12.7221116 2.14375317,12.8850546 2.6058298,12.8850546 C3.06795139,12.8850546 3.45300775,12.7221116 3.76122369,12.3969898 L7.53530657,8.63585606 L7.53530657,17.6731702 C7.53530657,18.1178464 7.69568677,18.4796124 8.01667198,18.7579285 C8.3376572,19.0359748 8.7249167,19.174863 9.17836058,19.174863 L10.8215045,19.174863 C11.2751282,19.174863 11.6622079,19.0359298 11.9831931,18.7579285 C12.3041783,18.4797023 12.4648283,18.1178464 12.4648283,17.6731702 L12.4648283,8.63590102 L16.2388662,12.3970348 C16.5467674,12.7221565 16.9318688,12.8850996 17.394395,12.8850996 C17.847704,12.8850996 18.2373015,12.7221565 18.5622884,12.3970348 L19.5248843,11.4344388 C19.8415532,11.1005495 20,10.715583 20,10.2792248 C20.000045,9.83418886 19.8415981,9.44477116 19.5249293,9.1108818 Z" id="Shape"></path>
        </g>
    </g>
</svg>