<?xml version="1.0" encoding="iso-8859-1"?>
<!-- Generator: Adobe Illustrator 19.0.0, SVG Export Plug-In . SVG Version: 6.00 Build 0)  -->
<svg version="1.1" id="Layer_1" xmlns="http://www.w3.org/2000/svg" xmlns:xlink="http://www.w3.org/1999/xlink" x="0px" y="0px"
	 viewBox="0 0 512 512" style="enable-background:new 0 0 512 512;" xml:space="preserve">
<g>
	<g>
		<g>
			<path d="M149.333,426.667c35.355,0,64-28.645,64-64s-28.645-64-64-64s-64,28.645-64,64S113.978,426.667,149.333,426.667z
				 M149.333,341.333c11.791,0,21.333,9.542,21.333,21.333S161.125,384,149.333,384S128,374.458,128,362.667
				S137.542,341.333,149.333,341.333z"/>
			<path d="M362.667,426.667c35.355,0,64-28.645,64-64s-28.645-64-64-64s-64,28.645-64,64S327.311,426.667,362.667,426.667z
				 M362.667,341.333c11.791,0,21.333,9.542,21.333,21.333S374.458,384,362.667,384s-21.333-9.542-21.333-21.333
				S350.875,341.333,362.667,341.333z"/>
			<path d="M490.667,128H368.377c7.371-12.755,21.145-21.333,36.956-21.333c47.153,0,85.333-38.181,85.333-85.333
				C490.667,9.551,481.115,0,469.333,0C457.551,0,448,9.551,448,21.333C448,44.922,428.922,64,405.333,64
				c-39.786,0-73.183,27.182-82.649,64h-133.37c-9.465-36.818-42.863-64-82.649-64C83.078,64,64,44.922,64,21.333
				C64,9.551,54.449,0,42.667,0C30.885,0,21.333,9.551,21.333,21.333c0,47.153,38.181,85.333,85.333,85.333
				c15.811,0,29.585,8.578,36.956,21.333H21.333C9.551,128,0,137.551,0,149.333v85.333v256C0,502.449,9.551,512,21.333,512h469.333
				c11.782,0,21.333-9.551,21.333-21.333v-256v-85.333C512,137.551,502.449,128,490.667,128z M42.667,170.667h426.667v42.667H42.667
				V170.667z M469.333,469.333H42.667V256h426.667V469.333z"/>
		</g>
	</g>
</g>
<g>
</g>
<g>
</g>
<g>
</g>
<g>
</g>
<g>
</g>
<g>
</g>
<g>
</g>
<g>
</g>
<g>
</g>
<g>
</g>
<g>
</g>
<g>
</g>
<g>
</g>
<g>
</g>
<g>
</g>
</svg>
