<?xml version="1.0" encoding="iso-8859-1"?>
<!-- Generator: Adobe Illustrator 19.0.0, SVG Export Plug-In . SVG Version: 6.00 Build 0)  -->
<svg version="1.1" id="Layer_1" xmlns="http://www.w3.org/2000/svg" xmlns:xlink="http://www.w3.org/1999/xlink" x="0px" y="0px"
	 viewBox="0 0 511.98 511.98" style="enable-background:new 0 0 511.98 511.98;" xml:space="preserve">
<rect x="14.663" y="135.33" style="fill:#E6E9ED;" width="488.32" height="169"/>
<rect x="14.663" y="304.33" style="fill:#ED5564;" width="485.32" height="165.34"/>
<rect x="178.56" y="308.73" style="fill:#E6E9ED;" width="149.74" height="127"/>
<g>
	<path style="fill:#656D78;" d="M159.486,389.325c0,35.061-28.429,63.497-63.498,63.497c-35.068,0-63.497-28.437-63.497-63.497
		c0-35.062,28.429-63.498,63.497-63.498C131.057,325.827,159.486,354.263,159.486,389.325z"/>
	<path style="fill:#656D78;" d="M479.481,386.981c0,35.061-28.437,63.498-63.497,63.498c-35.062,0-63.498-28.438-63.498-63.498
		c0-35.062,28.437-63.498,63.498-63.498C451.045,323.483,479.481,351.92,479.481,386.981z"/>
	<path style="fill:#656D78;" d="M237.811,392.356c0,10.03-8.117,18.124-18.125,18.124c-10.007,0-18.124-8.094-18.124-18.124
		c0-10,8.117-18.125,18.124-18.125C229.694,374.231,237.811,382.356,237.811,392.356z"/>
	<path style="fill:#656D78;" d="M310.176,392.169c0,10.718-8.719,19.437-19.438,19.437c-10.733,0-19.428-8.719-19.428-19.437
		c0-10.719,8.694-19.438,19.428-19.438C301.457,372.731,310.176,381.45,310.176,392.169z"/>
</g>
<g>
	<rect x="179.98" y="439.32" style="fill:#FFCE54;" width="146.67" height="30.998"/>
	<rect x="53.33" y="178.67" style="fill:#FFCE54;" width="314.96" height="39.951"/>
</g>
<path style="fill:#ED5564;" d="M455.638,196.668c0,9.937-8.063,17.999-17.999,17.999c-9.938,0-17.999-8.062-17.999-17.999
	c0-9.937,8.062-18,17.999-18C447.576,178.669,455.638,186.731,455.638,196.668z"/>
<rect x="56.99" y="38" style="fill:#656D78;" width="398.65" height="30.671"/>
<path d="M437.327,250.65c-5.906,0-10.688,4.781-10.688,10.656c0,5.905,4.781,10.671,10.688,10.671
	c5.874,0,10.655-4.766,10.655-10.671C447.982,255.431,443.201,250.65,437.327,250.65z"/>
<path d="M53.334,271.977c5.891,0,10.663-4.766,10.663-10.671c0-5.875-4.772-10.656-10.663-10.656
	c-5.891,0-10.672,4.781-10.672,10.656C42.662,267.212,47.443,271.977,53.334,271.977z"/>
<path d="M213.327,346.671c5.891,0,10.664-4.781,10.664-10.688c0-5.875-4.773-10.656-10.664-10.656
	c-5.89,0-10.671,4.781-10.671,10.656C202.656,341.889,207.437,346.671,213.327,346.671z"/>
<path d="M255.99,346.671c5.891,0,10.664-4.781,10.664-10.688c0-5.875-4.773-10.656-10.664-10.656
	c-5.891,0-10.664,4.781-10.664,10.656C245.326,341.889,250.099,346.671,255.99,346.671z"/>
<path d="M298.644,346.671c5.906,0,10.688-4.781,10.688-10.688c0-5.875-4.781-10.656-10.688-10.656
	c-5.875,0-10.655,4.781-10.655,10.656C287.989,341.889,292.769,346.671,298.644,346.671z"/>
<path d="M415.984,399.981c5.891,0,10.655-4.781,10.655-10.688c0-5.875-4.765-10.656-10.655-10.656s-10.656,4.781-10.656,10.656
	C405.328,395.2,410.094,399.981,415.984,399.981z"/>
<path d="M95.129,378.637c-5.891,0-10.663,4.781-10.663,10.656c0,5.906,4.772,10.688,10.663,10.688s10.664-4.781,10.664-10.688
	C105.793,383.419,101.019,378.637,95.129,378.637z"/>
<path d="M501.324,122.656h-31.998V69.314V37.315c0-5.875-4.781-10.656-10.688-10.656H53.334c-5.891,0-10.672,4.781-10.672,10.656
	v31.999v53.342H10.664C4.773,122.656,0,127.437,0,133.312v341.322c0,5.906,4.773,10.656,10.664,10.656H181.11
	c0.07,0,0.141,0.031,0.219,0.031h149.314c0.094,0,0.156-0.031,0.219-0.031h170.462c5.875,0,10.656-4.75,10.656-10.656V133.311
	C511.98,127.436,507.199,122.656,501.324,122.656z M63.997,47.987h383.985v10.671H63.997V47.987z M63.997,79.985h383.985v42.67
	h-21.343c0-5.891-4.765-10.671-10.655-10.671H394.64c-5.875,0-10.655,4.781-10.655,10.671h-31.999
	c0-5.891-4.781-10.671-10.656-10.671c-5.905,0-10.687,4.781-10.687,10.671h-21.312c0-5.891-4.781-10.671-10.688-10.671
	c-5.875,0-10.655,4.781-10.655,10.671h-21.335c0-5.891-4.773-10.671-10.664-10.671c-5.891,0-10.664,4.781-10.664,10.671H223.99
	c0-5.891-4.773-10.671-10.664-10.671c-5.89,0-10.671,4.781-10.671,10.671h-21.327c0-5.891-4.781-10.671-10.672-10.671
	s-10.663,4.781-10.663,10.671h-31.999c0-5.891-4.773-10.671-10.664-10.671H95.996c-5.891,0-10.663,4.781-10.663,10.671H63.997
	V79.985z M490.636,143.983v149.315H21.335V143.983H490.636z M319.988,421.292h-32.78h-63.217h-31.999v-31.998V314.64h127.996
	V421.292z M277.333,442.636v21.342h-42.678v-21.342H277.333z M191.992,442.636h21.335v21.342h-21.335L191.992,442.636
	L191.992,442.636z M298.644,463.977v-21.342h21.344v21.342H298.644z M21.335,463.977v-74.652v-74.686h149.322v117.34v31.998H95.988
	L21.335,463.977L21.335,463.977z M490.636,463.977h-74.652H341.33v-31.998v-42.654c0,41.154,33.5,74.652,74.654,74.652
	c41.17,0,74.652-33.498,74.652-74.684c0-41.154-33.482-74.654-74.652-74.654c-41.154,0-74.654,33.469-74.654,74.654v-74.654h74.654
	h74.652v74.654V463.977z M362.642,389.294c0-29.405,23.937-53.311,53.342-53.311c29.404,0,53.342,23.905,53.342,53.311
	c0,29.404-23.938,53.342-53.342,53.342C386.579,442.636,362.642,418.698,362.642,389.294z"/>
<path d="M53.334,229.307H373.33c5.874,0,10.655-4.766,10.655-10.656v-42.67c0-5.89-4.781-10.671-10.655-10.671H53.334
	c-5.891,0-10.672,4.781-10.672,10.671v42.67C42.662,224.542,47.443,229.307,53.334,229.307z M63.997,186.653h298.646v21.327H255.99
	c0-5.891-4.773-10.671-10.664-10.671s-10.671,4.781-10.671,10.671H63.997V186.653z"/>
<path d="M437.327,229.307c17.624,0,31.999-14.343,31.999-31.999c0-17.64-14.375-31.999-31.999-31.999
	c-17.655,0-31.999,14.359-31.999,31.999C405.328,214.964,419.672,229.307,437.327,229.307z M437.327,186.653
	c5.874,0,10.655,4.781,10.655,10.656c0,5.89-4.781,10.671-10.655,10.671c-5.891,0-10.688-4.781-10.688-10.671
	C426.639,191.434,431.436,186.653,437.327,186.653z"/>
<path d="M170.634,389.325c0-41.186-33.482-74.654-74.646-74.654c-41.17,0-74.653,33.469-74.653,74.654
	c0,41.154,33.483,74.652,74.653,74.652C137.151,463.977,170.634,430.479,170.634,389.325z M95.988,442.636
	c-29.405,0-53.326-23.906-53.326-53.311s23.921-53.342,53.326-53.342c29.397,0,53.318,23.937,53.318,53.342
	C149.306,418.729,125.386,442.636,95.988,442.636z"/>
<path d="M319.207,389.294c0-17.625-14.344-31.999-31.999-31.999c-15.944,0-29.21,11.749-31.601,27.062
	c-2.391-15.313-15.656-27.062-31.616-27.062c-17.647,0-31.999,14.374-31.999,31.999c0,17.655,14.352,31.998,31.999,31.998
	c15.96,0,29.226-11.718,31.616-27.029c2.391,15.312,15.656,27.029,31.601,27.029C304.863,421.292,319.207,406.949,319.207,389.294z
	 M223.991,399.981c-5.883,0-10.664-4.781-10.664-10.688c0-5.875,4.781-10.656,10.664-10.656s10.664,4.781,10.664,10.656
	C234.655,395.2,229.874,399.981,223.991,399.981z M287.208,399.981c-5.875,0-10.656-4.781-10.656-10.688
	c0-5.875,4.781-10.656,10.656-10.656c5.89,0,10.687,4.781,10.687,10.656C297.894,395.2,293.097,399.981,287.208,399.981z"/>
<path d="M127.995,250.65H85.333c-5.891,0-10.672,4.781-10.672,10.656c0,5.905,4.781,10.671,10.672,10.671h42.662
	c5.891,0,10.663-4.766,10.663-10.671C138.658,255.431,133.886,250.65,127.995,250.65z"/>
<path d="M330.643,250.65H159.994c-5.891,0-10.664,4.781-10.664,10.656c0,5.905,4.773,10.671,10.664,10.671h170.649
	c5.906,0,10.687-4.766,10.687-10.671C341.33,255.431,336.55,250.65,330.643,250.65z"/>
<path d="M351.986,261.306c0,5.905,4.781,10.671,10.656,10.671h42.686c5.875,0,10.656-4.766,10.656-10.671
	c0-5.875-4.781-10.656-10.656-10.656h-42.686C356.767,250.65,351.986,255.431,351.986,261.306z"/>
<g>
</g>
<g>
</g>
<g>
</g>
<g>
</g>
<g>
</g>
<g>
</g>
<g>
</g>
<g>
</g>
<g>
</g>
<g>
</g>
<g>
</g>
<g>
</g>
<g>
</g>
<g>
</g>
<g>
</g>
</svg>
