<?xml version="1.0" encoding="iso-8859-1"?>
<!-- Generator: Adobe Illustrator 16.0.0, SVG Export Plug-In . SVG Version: 6.00 Build 0)  -->
<!DOCTYPE svg PUBLIC "-//W3C//DTD SVG 1.1//EN" "http://www.w3.org/Graphics/SVG/1.1/DTD/svg11.dtd">
<svg version="1.1" id="Capa_1" xmlns="http://www.w3.org/2000/svg" xmlns:xlink="http://www.w3.org/1999/xlink" x="0px" y="0px"
	 width="539.292px" height="539.292px" viewBox="0 0 539.292 539.292" style="enable-background:new 0 0 539.292 539.292;"
	 xml:space="preserve">
<g>
	<g id="Layer_7">
		<path d="M112.312,150.782H423.27v16.849H112.312V150.782z M404.88,367.459l18.39,72.229H116.026l18.389-72.229H404.88z
			 M196.214,403.567c0-8.652-7.009-15.654-15.652-15.654c-8.64,0-15.655,7.002-15.655,15.654c0,8.653,7.015,15.668,15.655,15.668
			C189.205,419.223,196.214,412.221,196.214,403.567z M363.547,403.567c0-13.286-10.784-24.07-24.076-24.07
			c-13.299,0-24.07,10.784-24.07,24.07c0,13.299,10.783,24.083,24.07,24.083C352.757,427.65,363.547,416.86,363.547,403.567z
			 M539.292,112.26v312.979c0,7.977-6.467,14.443-14.431,14.443h-94.145l7.008-1.79l-21.628-84.883H123.193l-21.625,84.883
			l7.008,1.79H14.44c-7.979,0-14.44-6.467-14.44-14.443V112.26c0-7.974,6.461-14.447,14.44-14.447h510.408
			C532.825,97.807,539.292,104.28,539.292,112.26z M88.144,312.084c-6.181-5.778-11.161-12.817-14.428-20.751l-6.853,20.751H88.144z
			 M153.961,268.742c0-14.036-11.384-25.407-25.419-25.407c-14.035,0-25.422,11.371-25.422,25.407s11.387,25.428,25.422,25.428
			C142.578,294.17,153.961,282.777,153.961,268.742z M420.469,262.162c0-19.945-16.173-36.108-36.109-36.108
			c-19.936,0-36.108,16.164-36.108,36.108c0,19.945,16.173,36.118,36.108,36.118C404.32,298.28,420.469,282.107,420.469,262.162z
			 M473.018,312.084l-8.195-24.813c-2.802,9.043-7.174,17.379-12.678,24.813H473.018z M495.955,153.179
			c0-7.977-6.473-14.443-14.437-14.443H55.369c-7.98,0-14.44,6.467-14.44,14.443v144.456c0,6.734,4.64,12.349,10.881,13.944
			l21.068-63.812l0.226,0.079c8.461-22.426,30.059-38.401,55.445-38.401c32.753,0,59.308,26.555,59.308,59.303
			c0,17.128-7.295,32.504-18.904,43.336h147.635c-10.315-13.98-16.49-31.219-16.49-49.922c0-46.533,37.729-84.262,84.262-84.262
			c42.223,0,77.077,31.088,83.215,71.594l20.167,61.11c4.829-2.338,8.202-7.234,8.202-12.97L495.955,153.179L495.955,153.179z
			 M115.578,441.479l0.448-1.79h-7.45L115.578,441.479z M423.714,441.479l7.003-1.79h-7.447L423.714,441.479z"/>
	</g>
</g>
<g>
</g>
<g>
</g>
<g>
</g>
<g>
</g>
<g>
</g>
<g>
</g>
<g>
</g>
<g>
</g>
<g>
</g>
<g>
</g>
<g>
</g>
<g>
</g>
<g>
</g>
<g>
</g>
<g>
</g>
</svg>
