<?xml version="1.0" encoding="UTF-8"?>
<svg width="20px" height="35px" viewBox="0 0 20 35" version="1.1" xmlns="http://www.w3.org/2000/svg" xmlns:xlink="http://www.w3.org/1999/xlink">
    <!-- Generator: Sketch 49.3 (51167) - http://www.bohemiancoding.com/sketch -->
    <title>Untitled</title>
    <desc>Created with Sketch.</desc>
    <defs></defs>
    <g id="Page-1" stroke="none" stroke-width="1" fill="none" fill-rule="evenodd">
        <g id="download" fill="#226BD3" fill-rule="nonzero">
            <path d="M18.7577483,13.4365563 L13.1898675,13.4365563 L13.1898675,0.891059603 C13.1898675,0.398940397 12.4070199,0 11.4411258,0 L8.38066225,0 C7.41490066,0 6.63178808,0.398940397 6.63178808,0.891059603 L6.63178808,13.4365563 L1.06417219,13.4365563 C0.505695364,13.4365563 0.0529801325,13.7901325 0.0529801325,14.2264238 C0.0529801325,14.2264238 8.39417219,26.4697351 9.15258278,27.0621192 C9.9107947,27.6546358 10.6690728,27.0621192 10.6690728,27.0621192 L19.7686755,14.2264238 C19.7686755,13.7901325 19.3160265,13.4365563 18.7577483,13.4365563 Z" id="Shape"></path>
            <path d="M19.9768874,32.935298 C19.9768874,33.6349669 19.4818543,34.202053 18.8709272,34.202053 L1.17397351,34.202053 C0.563311258,34.202053 0.068013245,33.6349669 0.068013245,32.935298 L0.068013245,31.668543 C0.068013245,30.9688742 0.563311258,30.4017881 1.17397351,30.4017881 L18.8708609,30.4017881 C19.4817881,30.4017881 19.9768212,30.9688742 19.9768212,31.668543 L19.9768874,32.935298 Z" id="Shape"></path>
        </g>
    </g>
</svg>