<?xml version="1.0" encoding="UTF-8"?>
<svg width="30px" height="30px" viewBox="0 0 30 30" version="1.1" xmlns="http://www.w3.org/2000/svg" xmlns:xlink="http://www.w3.org/1999/xlink">
    <!-- Generator: Sketch 46.2 (44496) - http://www.bohemiancoding.com/sketch -->
    <title>Untitled</title>
    <desc>Created with Sketch.</desc>
    <defs></defs>
    <g id="Page-1" stroke="none" stroke-width="1" fill="none" fill-rule="evenodd">
        <g id="magnifying-glass" fill-rule="nonzero" fill="#226BD3">
            <path d="M29.6326531,27.8693878 L22.4204082,20.6571429 C24.2081633,18.477551 25.2857143,15.6857143 25.2857143,12.6428571 C25.2857143,5.66326531 19.622449,0 12.6428571,0 C5.65714286,0 0,5.66326531 0,12.6428571 C0,19.622449 5.65714286,25.2857143 12.6428571,25.2857143 C15.6857143,25.2857143 18.4714286,24.2142857 20.6510204,22.4265306 L27.8632653,29.6326531 C28.3530612,30.122449 29.1428571,30.122449 29.6326531,29.6326531 C30.122449,29.1489796 30.122449,28.3530612 29.6326531,27.8693878 Z M12.6428571,22.7693878 C7.05306122,22.7693878 2.51020408,18.2265306 2.51020408,12.6428571 C2.51020408,7.05918367 7.05306122,2.51020408 12.6428571,2.51020408 C18.2265306,2.51020408 22.7755102,7.05918367 22.7755102,12.6428571 C22.7755102,18.2265306 18.2265306,22.7693878 12.6428571,22.7693878 Z" id="Shape"></path>
        </g>
    </g>
</svg>