<?xml version="1.0" encoding="UTF-8"?>
<svg width="24px" height="12px" viewBox="0 0 24 12" version="1.1" xmlns="http://www.w3.org/2000/svg" xmlns:xlink="http://www.w3.org/1999/xlink">
    <!-- Generator: Sketch 46.2 (44496) - http://www.bohemiancoding.com/sketch -->
    <title>Untitled</title>
    <desc>Created with Sketch.</desc>
    <defs></defs>
    <g id="Page-1" stroke="none" stroke-width="1" fill="none" fill-rule="evenodd">
        <g id="iconmonstr-soundcloud-1" fill-rule="nonzero" fill="#111111">
            <path d="M7,11.939 L6,11.939 L6,3.871 C6.308,3.64 6.639,3.442 7,3.305 L7,11.939 Z M10,11.939 L11,11.939 L11,2.715 C10.771,2.98 10.557,3.263 10.379,3.572 L10,3.388 L10,11.939 Z M8,11.939 L9,11.939 L9,3.091 C8.492,3.012 8.377,3.041 8,3.081 L8,11.939 Z M4,11.939 L5,11.939 L5,4.919 C4.688,5.377 4.445,5.89 4.308,6.454 L4,6.272 L4,11.939 Z M1,6.689 C0.394,7.236 0,8.043 0,8.957 C0,9.871 0.394,10.678 1,11.225 L1,6.689 L1,6.689 Z M19.879,6.018 C19.675,3.181 17.475,0.939 14.762,0.939 C13.74,0.939 12.798,1.267 12,1.816 L12,11.939 L21.089,11.939 C22.696,11.939 24,10.546 24,8.833 C24,6.6 21.832,5.061 19.879,6.018 L19.879,6.018 Z M3,5.991 C2.698,5.967 2.474,5.961 2,6.113 L2,11.802 C2.446,11.945 2.636,11.94 3,11.94 L3,5.991 Z" id="Shape"></path>
        </g>
    </g>
</svg>