<?xml version="1.0" encoding="UTF-8"?>
<svg width="28px" height="16px" viewBox="0 0 28 16" version="1.1" xmlns="http://www.w3.org/2000/svg" xmlns:xlink="http://www.w3.org/1999/xlink">
    <!-- Generator: Sketch 46.2 (44496) - http://www.bohemiancoding.com/sketch -->
    <title>Slice 1</title>
    <desc>Created with Sketch.</desc>
    <defs></defs>
    <g id="Page-1" stroke="none" stroke-width="1" fill="none" fill-rule="evenodd">
        <path d="M14.8424806,15.4790661 C15.5288191,15.4790661 15.8105674,15.0205333 15.8015021,14.4467922 C15.7664888,12.2837949 16.6068725,11.1200797 18.123347,12.6374376 C19.8020781,14.3167968 20.1491231,15.4790661 22.1863951,15.4790661 L25.7952563,15.4790661 C28.6342857,15.4790661 26.104332,12.6286967 24.104241,10.7715632 C22.2026208,9.00564997 22.1133468,8.96398309 23.7508897,6.83838083 C25.7840888,4.20035484 28.4407603,0.801415413 26.0900113,0.801415413 L21.6002352,0.801415413 C20.7291081,0.801415413 20.6663076,1.31061884 20.3568378,2.04156366 C19.235494,4.68872482 17.1026418,8.11881582 16.2923445,7.59502242 C15.4449318,7.04710955 15.832968,5.1888588 15.8979363,1.96821944 C15.9150816,1.11766307 15.910746,0.533340972 14.6113143,0.23161757 C11.0634143,-0.592190498 7.98901432,1.02828302 9.24489301,1.26224845 C11.0161168,1.59269177 10.8462402,5.1197207 10.4331101,6.77555191 C9.71372899,9.65871585 7.00969434,4.49162866 5.88243844,1.91906041 C5.61126639,1.30003781 5.52836447,0.801415413 4.55778137,0.801415413 L0.886908004,0.801415413 C0.179219902,0.801415413 -0.167759449,1.12568099 0.0793040384,1.78321587 C0.326367526,2.44075075 3.1667108,8.7973813 6.52482978,12.423977 C9.63286349,15.7804609 12.7048986,15.4790661 14.8424806,15.4790661 L14.8424806,15.4790661 Z" id="vk-icon" fill="#111111"></path>
    </g>
</svg>