<?xml version="1.0" encoding="UTF-8"?>
<svg width="90px" height="90px" viewBox="0 0 90 90" version="1.1" xmlns="http://www.w3.org/2000/svg" xmlns:xlink="http://www.w3.org/1999/xlink">
    <!-- Generator: Sketch 46.2 (44496) - http://www.bohemiancoding.com/sketch -->
    <title>Slice 1</title>
    <desc>Created with Sketch.</desc>
    <defs></defs>
    <g id="Page-1" stroke="none" stroke-width="1" fill="none" fill-rule="evenodd">
        <g id="vinyl-record" fill-rule="nonzero" fill="#FFFFFF">
            <circle id="Oval" cx="45" cy="45" r="6.05769231"></circle>
            <path d="M45,0 C20.1472874,0 0,20.1472874 0,45 C0,69.8527126 20.1472874,90 45,90 C69.8527126,90 90,69.8527126 90,45 C90,20.1472874 69.8527126,0 45,0 Z M27.8421947,11.1918531 C32.9932772,8.57320996 38.824231,7.09636028 45,7.09636028 C45.3627065,7.09636028 45.72216,7.10123974 46.0816135,7.11099866 C46.678534,7.12726353 47.0884086,8.61061915 46.9989518,10.4046337 L46.5402826,19.6381971 C46.4508259,21.4322117 46.0702281,22.8683992 45.6896302,22.8570138 C45.4602957,22.8505078 45.2309611,22.8472549 45,22.8472549 C41.7519066,22.8472549 38.6664618,23.546644 35.8867965,24.8022915 C34.2489247,25.5423429 32.2890086,25.101565 31.3749232,23.5547764 L26.6646185,15.5898724 C25.7505331,14.0430838 26.2401055,12.0067228 27.8421947,11.1918531 Z M26.001012,28.1300828 L19.0429031,22.0437706 C17.6896664,20.8613149 17.5497886,18.8005566 18.8493512,17.561174 C18.8802545,17.5318972 18.9095312,17.5042469 18.9420609,17.4749702 C20.2465031,16.2388405 22.2909965,16.4909459 23.3937543,17.9076156 L29.0766979,25.2007807 C30.1810822,26.6174504 30.438067,28.2732136 29.7126541,28.9644703 C28.9856146,29.65898 27.3542487,29.3125384 26.001012,28.1300828 Z M29.0766979,45 C29.0766979,36.2055879 36.2055879,29.0766979 45,29.0766979 C53.7944121,29.0766979 60.9233021,36.2055879 60.9233021,45 C60.9233021,53.7944121 53.7944121,60.9233021 45,60.9233021 C36.2055879,60.9233021 29.0766979,53.7944121 29.0766979,45 Z M62.082987,78.8455561 C56.9497958,81.4414284 51.1448657,82.9036397 45,82.9036397 C44.5966314,82.9036397 44.1948892,82.8971338 43.7947736,82.8857484 C43.1295406,82.864604 42.6692449,81.3747425 42.7668341,79.5807279 L43.2710449,70.348791 C43.3702606,68.5547764 43.7947736,67.1267214 44.224166,67.1413597 C44.4811508,67.1494922 44.7397622,67.1543716 45,67.1543716 C47.9829761,67.1543716 50.8260744,66.5655835 53.4235732,65.4986085 C55.0858423,64.8154842 57.1238298,65.2643944 58.1029747,66.7705208 L63.1467091,74.5288611 C64.1258539,76.033361 63.6867026,78.0339394 62.082987,78.8455561 Z M70.9457115,72.6323779 C69.6998229,73.8034482 67.6846062,73.5285719 66.5493187,72.1362996 L60.7102324,64.9683739 C59.5749449,63.5761015 59.2854303,61.962627 60.0027108,61.300647 C60.7216178,60.638667 62.3497307,61.0095059 63.7013409,62.193588 L70.6627029,68.2831532 C72.0159396,69.4656088 72.1932266,71.4613077 70.9457115,72.6323779 Z" id="Shape"></path>
        </g>
    </g>
</svg>