<?xml version="1.0" encoding="UTF-8"?>
<svg width="100px" height="62px" viewBox="0 0 100 62" version="1.1" xmlns="http://www.w3.org/2000/svg" xmlns:xlink="http://www.w3.org/1999/xlink">
    <!-- Generator: Sketch 46.2 (44496) - http://www.bohemiancoding.com/sketch -->
    <title>Slice 1</title>
    <desc>Created with Sketch.</desc>
    <defs></defs>
    <g id="Page-1" stroke="none" stroke-width="1" fill="none" fill-rule="evenodd">
        <g id="graduate-cap" fill-rule="nonzero" fill="#FFFFFF">
            <path d="M99.284375,44.746875 C99.284375,43.265625 98.4125,42.028125 97.171875,41.415625 L97.171875,18.4375 C97.453125,18.33125 97.628125,18.065625 97.625,17.76875 C97.625,17.471875 97.43125,17.209375 97.159375,17.1125 L49.75,0.390625 C49.14375,0.175 48.48125,0.175 47.871875,0.390625 L0.46875,17.115625 C0.190625,17.2125 0.003125,17.475 2.06752611e-15,17.771875 C-0.003125,18.06875 0.175,18.334375 0.45,18.440625 L47.7875,36.865625 C48.446875,37.11875 49.175,37.11875 49.834375,36.865625 L93.903125,19.703125 L93.903125,41.4125 C92.665625,42.021875 91.79375,43.26875 91.79375,44.740625 C91.79375,46.278125 92.73125,47.6125 94.071875,48.184375 C92.73125,50.83125 91.79375,56.2625 91.79375,57.8125 C91.79375,59.878125 93.471875,61.553125 95.5375,61.553125 C97.6,61.553125 99.278125,59.878125 99.278125,57.8125 C99.278125,56.2625 98.3375,50.83125 97,48.184375 C98.34375,47.61875 99.284375,46.284375 99.284375,44.746875 Z" id="Shape"></path>
            <path d="M15.275,27.71875 C15.278125,33.01875 15.28125,39.25625 15.28125,40.246875 C15.28125,50.115625 30.134375,58.15 48.8125,58.653125 C67.4875,58.15 82.340625,50.125 82.340625,40.246875 C82.340625,39.2625 82.340625,33.021875 82.346875,27.71875 L49.828125,40.378125 C49.16875,40.634375 48.440625,40.634375 47.78125,40.378125 L15.275,27.71875 Z" id="Shape"></path>
        </g>
    </g>
</svg>