<?xml version="1.0" encoding="UTF-8"?>
<svg width="76px" height="90px" viewBox="0 0 76 90" version="1.1" xmlns="http://www.w3.org/2000/svg" xmlns:xlink="http://www.w3.org/1999/xlink">
    <!-- Generator: Sketch 46.2 (44496) - http://www.bohemiancoding.com/sketch -->
    <title>Slice 1</title>
    <desc>Created with Sketch.</desc>
    <defs></defs>
    <g id="Page-1" stroke="none" stroke-width="1" fill="none" fill-rule="evenodd">
        <g id="microphone" fill-rule="nonzero" fill="#FFFFFF">
            <path d="M56.0034926,32.9320588 L38.8111765,15.7397426 C38.8336765,15.3327574 38.8747059,14.9264338 38.9276471,14.5217647 C38.9544485,14.3172794 38.9855515,14.113125 39.0199632,13.9096324 C39.0229412,13.8917647 39.0259191,13.8738971 39.0288971,13.8560294 C39.0626471,13.6611397 39.0997059,13.4669118 39.1404044,13.2733456 C39.1456985,13.2481985 39.1509926,13.2230515 39.1566176,13.1975735 C39.1976471,13.0069853 39.2416544,12.8170588 39.2893015,12.6277941 C39.2955882,12.6029779 39.3022059,12.5781618 39.3088235,12.5533456 C39.358125,12.3617647 39.4100735,12.1708456 39.4666544,11.9809191 C39.4709559,11.9663603 39.4759191,11.9518015 39.4802206,11.9369118 C39.7161397,11.1494118 40.0142647,10.3764706 40.3716176,9.62503676 C40.3914706,9.58367647 40.4096691,9.54165441 40.4295221,9.500625 C40.4947059,9.36661765 40.5638603,9.23426471 40.6330147,9.10191176 C40.6737132,9.02349265 40.71375,8.94507353 40.7557721,8.86731618 C40.8193015,8.75018382 40.8861397,8.63404412 40.9526471,8.51790441 C41.0052574,8.42625 41.0578676,8.33492647 41.1124632,8.24393382 C41.1766544,8.13738971 41.2425,8.03150735 41.3093382,7.92595588 C41.371875,7.82735294 41.4354044,7.72875 41.5002574,7.63113971 C41.5651103,7.53319853 41.6312868,7.43591912 41.6984559,7.33930147 C41.77125,7.23474265 41.8456985,7.13150735 41.9211397,7.02827206 C41.9863235,6.93893382 42.0515074,6.84992647 42.1190074,6.76158088 C42.2033824,6.65106618 42.2904044,6.54220588 42.3777574,6.43334559 C42.4416176,6.35393382 42.5044853,6.27419118 42.5696691,6.19577206 C42.6715809,6.07367647 42.7774632,5.95389706 42.8836765,5.83411765 C42.9395956,5.77091912 42.9938603,5.70672794 43.0511029,5.64419118 C43.216875,5.46286765 43.3866176,5.28419118 43.5619853,5.10882353 C44.3584191,4.31238971 45.2167279,3.61555147 46.1213603,3.01830882 C46.7996691,2.57029412 47.5044485,2.17819853 48.2284191,1.84235294 C48.9527206,1.50650735 49.6962132,1.22625 50.4529412,1.00224265 C53.4798529,0.106213235 56.7158824,0.106213235 59.7427941,1.00224265 C60.4995221,1.22625 61.2433456,1.50617647 61.9673162,1.84235294 C62.6912868,2.17819853 63.3960662,2.57029412 64.074375,3.01830882 C64.9790074,3.61555147 65.8373162,4.31238971 66.63375,5.10882353 C73.0048897,11.4799632 73.0048897,21.8094485 66.63375,28.1805882 C66.4583824,28.3559559 66.279375,28.5256985 66.0983824,28.6914706 C66.0358456,28.7487132 65.9713235,28.8029779 65.908125,28.8592279 C65.7886765,28.9651103 65.6688971,29.0709926 65.5471324,29.1725735 C65.4687132,29.2380882 65.3886397,29.3009559 65.3092279,29.3651471 C65.2006985,29.4525 65.0918382,29.5395221 64.9816544,29.6235662 C64.8933088,29.6910662 64.8039706,29.75625 64.7146324,29.8217647 C64.6117279,29.896875 64.5084926,29.9713235 64.4042647,30.0437868 C64.3073162,30.1112868 64.2097059,30.1774632 64.1117647,30.2423162 C64.0144853,30.3068382 63.9162132,30.3703676 63.8179412,30.4325735 C63.7120588,30.4997426 63.6058456,30.5659191 63.4986397,30.6304412 C63.4086397,30.684375 63.3179779,30.7366544 63.2273162,30.7886029 C63.1101838,30.8557721 62.9933824,30.9229412 62.8749265,30.9871324 C62.7988235,31.0284926 62.7213971,31.0675368 62.6446324,31.1075735 C62.5109559,31.1773897 62.3772794,31.2475368 62.2419485,31.3130515 C62.2029044,31.3322426 62.1628676,31.3494485 62.1238235,31.3683088 C61.3694118,31.7276471 60.5931618,32.0267647 59.8023529,32.2636765 C59.7894485,32.2676471 59.7765441,32.2719485 59.7633088,32.2755882 C59.5720588,32.3325 59.3794853,32.3847794 59.1865809,32.4344118 C59.1634191,32.4403676 59.1402574,32.4466544 59.1170956,32.4526103 C58.9265074,32.5005882 58.7352574,32.5452574 58.5433456,32.5862868 C58.5195221,32.5915809 58.4953676,32.5965441 58.4715441,32.6015074 C58.2769853,32.6422059 58.0817647,32.6799265 57.8858824,32.7136765 C57.8690074,32.7166544 57.8518015,32.7193015 57.8349265,32.7222794 C57.6307721,32.7566912 57.4259559,32.788125 57.2208088,32.8145956 L57.2208088,32.8145956 C56.8161397,32.8685294 56.4104779,32.9095588 56.0034926,32.9320588 Z M68.1965074,58.32 C65.3105515,55.4337132 61.4736397,53.8444853 57.3922059,53.8444853 C53.3107721,53.8444853 49.4735294,55.4340441 46.5879044,58.3196691 L22.9595956,81.9479779 C21.0110294,83.8965441 18.4205515,84.9695956 15.6649632,84.9695956 C12.909375,84.9695956 10.3185662,83.8965441 8.36834559,81.9463235 L8.18702206,81.7653309 C4.16481618,77.7427941 4.16481618,71.1976103 8.18702206,67.1754044 L14.4625368,60.8998897 L16.2436765,62.6810294 C16.7251103,63.1624632 17.3607353,63.4076471 17.9990074,63.4076471 C18.5429779,63.4076471 19.0886029,63.2296324 19.5429044,62.8683088 L52.6241912,36.5591912 C52.5811765,36.5191544 52.5355147,36.4827574 52.4938235,36.4413971 L35.3015074,19.2490809 C35.2512132,19.1987868 35.2075368,19.1435294 35.1598897,19.0915809 L8.66018382,51.9627574 C7.86441176,52.9497794 7.94084559,54.3785294 8.83753676,55.2752206 L10.9525368,57.3898897 L4.67702206,63.6654044 C-1.28018382,69.6229412 -1.28018382,79.3168015 4.67867647,85.2759926 L4.86,85.4573162 C7.74628676,88.3432721 11.5831985,89.9325 15.6646324,89.9325 C19.7460662,89.9325 23.5833088,88.3429412 26.4689338,85.4573162 L50.0972426,61.8290074 C52.0458088,59.8804412 54.6362868,58.8073897 57.391875,58.8073897 C60.1474632,58.8073897 62.7379412,59.8804412 64.6868382,61.8293382 L71.2588235,68.4009926 C72.2276471,69.3698162 73.7990074,69.3694853 74.7681618,68.4006618 C75.7373162,67.4315074 75.7373162,65.8601471 74.7678309,64.8913235 L68.1965074,58.32 Z" id="Shape"></path>
        </g>
    </g>
</svg>