<?xml version="1.0" encoding="UTF-8"?>
<svg width="121px" height="89px" viewBox="0 0 121 89" version="1.1" xmlns="http://www.w3.org/2000/svg" xmlns:xlink="http://www.w3.org/1999/xlink">
    <!-- Generator: Sketch 46.2 (44496) - http://www.bohemiancoding.com/sketch -->
    <title>Slice 1</title>
    <desc>Created with Sketch.</desc>
    <defs></defs>
    <g id="Page-1" stroke="none" stroke-width="1" fill="none" fill-rule="evenodd">
        <g id="musical-notation-of-music-class" fill-rule="nonzero" fill="#FFFFFF">
            <path d="M120.9225,44.58875 L103.815,44.58875 L103.815,43.6175 L101.75625,43.6175 L100.35,43.6175 L98.95125,43.6175 L98.95125,44.58875 L84.12,44.58875 C85.49625,43.29875 86.45625,41.57 86.745,39.6125 L86.8425,39.6125 L86.8425,31.29125 L120.81375,31.29125 L120.81375,28.8725 L86.8425,28.8725 L86.8425,14.76125 L120.855,14.76125 L120.855,12.35 L86.8425,12.35 L86.8425,5.9825 L87.00375,5.9525 L86.95125,0.18875 L57.65625,8.0375 L57.68625,11.21375 L57.68625,11.21375 L57.68625,12.35375 L0.04875,12.35375 L0.04875,14.765 L57.6825,14.765 L57.6825,28.88 L22.2,28.88 L22.2,26.39375 L20.145,26.39375 L18.73875,26.39375 L17.33625,26.39375 L17.33625,28.8725 L0,28.8725 L0,31.29125 L17.33625,31.29125 L17.33625,44.58875 L0.10875,44.58875 L0.10875,47.0075 L17.33625,47.0075 L17.33625,56.22875 C15.7575,54.7475 13.6425,53.84 11.30625,53.84 C6.96375,53.84 3.37125,56.9825 2.6325,61.115 L0.07125,61.115 L0.07125,63.5375 L2.56125,63.5375 C3,68.00375 6.72375,71.51375 11.30625,71.51375 C15.7575,71.51375 19.4175,68.225 20.04,63.9575 L20.145,63.9575 L20.145,63.5375 L98.95125,63.5375 L98.95125,73.46 C97.365,71.975 95.25375,71.0675 92.9175,71.0675 C88.39875,71.0675 84.7125,74.4725 84.195,78.845 L0.10875,78.845 L0.10875,81.2675 L84.21375,81.2675 C84.88125,85.49375 88.5075,88.7375 92.91375,88.7375 C97.32,88.7375 100.965,85.49375 101.62125,81.2675 L120.91875,81.2675 L120.91875,78.845 L101.7525,78.845 L101.7525,63.5375 L105.89625,63.5375 L107.4825,65.63 L110.23125,63.5375 L120.86625,63.5375 L120.86625,61.115 L108.4275,61.115 L103.18875,54.21125 L103.18875,51.8 L108.10875,58.28375 L110.87625,56.17625 L103.9125,47.0075 L120.9225,47.0075 L120.9225,44.58875 L120.9225,44.58875 Z M72.46125,44.58875 L60.39375,44.58875 L60.39375,31.29125 L73.5,31.29125 C71.235,32.825 69.75,35.42375 69.75,38.37125 C69.75,40.83125 70.79625,43.02875 72.46125,44.58875 Z M84.1275,32.13125 C83.7975,31.82 83.43,31.55 83.05125,31.29125 L84.1275,31.29125 L84.1275,32.13125 Z M84.1275,12.35 L79.0125,12.35 L84.12375,10.8875 L84.12375,12.35 L84.1275,12.35 Z M84.1275,6.48875 L84.1275,9.3125 L73.4925,12.35375 L63.7125,12.35375 L84.1275,6.48875 Z M65.01,14.76125 L60.3975,16.08875 L60.3975,14.76125 L65.01,14.76125 Z M60.39375,17.66 L70.54125,14.76125 L84.1275,14.76125 L84.1275,28.87625 L60.39375,28.87625 L60.39375,17.66 Z M57.6825,31.29125 L57.6825,40.08125 C56.15625,38.64875 54.105,37.77125 51.84375,37.77125 C47.71125,37.77125 44.265,40.69625 43.47,44.58875 L27.3525,44.58875 L21.5775,36.99125 L21.5775,34.58375 L26.505,41.06375 L29.2725,38.95625 L23.445,31.29125 L57.6825,31.29125 Z M20.145,40.8575 L22.98375,44.58875 L20.145,44.58875 L20.145,40.8575 Z M104.0625,61.115 L101.75625,61.115 L101.75625,58.07 L104.0625,61.115 Z M98.95125,61.115 L20.145,61.115 L20.145,47.00375 L24.82125,47.00375 L25.875,48.395 L27.705,47.00375 L43.365,47.00375 C43.7175,51.4025 47.355,54.8675 51.84375,54.8675 C56.14125,54.8675 59.6925,51.68375 60.2925,47.5625 L60.39375,47.5625 L60.39375,47.0075 L98.94375,47.0075 L98.94375,61.11875 L98.95125,61.11875 L98.95125,61.115 Z" id="Shape"></path>
        </g>
    </g>
</svg>