<?xml version="1.0" encoding="UTF-8"?>
<svg width="54px" height="100px" viewBox="0 0 54 100" version="1.1" xmlns="http://www.w3.org/2000/svg" xmlns:xlink="http://www.w3.org/1999/xlink">
    <!-- Generator: Sketch 46.2 (44496) - http://www.bohemiancoding.com/sketch -->
    <title>Slice 1</title>
    <desc>Created with Sketch.</desc>
    <defs></defs>
    <g id="Page-1" stroke="none" stroke-width="1" fill="none" fill-rule="evenodd">
        <g id="musician-playing-a-trumpet" fill-rule="nonzero" fill="#FFFFFF">
            <path d="M50.5377778,13.0491111 C48.8813333,14.5584444 44.9966667,12.9871111 41.8593333,9.54177778 C38.7211111,6.09577778 37.518,2.07933333 39.1744444,0.572666667 C40.828,-0.934 44.7144444,0.636 47.8528889,4.08155556 C50.9891111,7.52577778 52.1931111,11.5422222 50.5377778,13.0491111 Z" id="Shape"></path>
            <path d="M53.5015556,76.1206667 C53.3653333,74.7795556 52.7213333,73.6244444 51.6857778,72.872 C48.7433333,70.7355556 42.5628889,70.7951111 37.324,71.34 C38.1724444,68.8066667 38.1691111,66.1455556 37.2935556,63.5326667 C35.5997778,58.478 30.944,54.2648889 26.6337778,51.2833333 C29.1602222,48.9166667 32.7171111,44.6082222 33.254,38.7726667 L34.872,40.3671111 C35.0048889,40.498 35.1793333,40.562 35.3493333,40.562 C35.5284444,40.562 35.7037778,40.4948889 35.8364444,40.3584444 C36.1006667,40.0891111 36.0973333,39.658 35.8293333,39.3931111 L33.3082222,36.9075556 L34.9982222,34.7302222 L37.954,37.5915556 C38.0866667,37.7184444 38.2584444,37.7835556 38.4295556,37.7835556 C38.6086667,37.7835556 38.786,37.7135556 38.9184444,37.5755556 C39.1784444,37.3053333 39.174,36.8728889 38.9015556,36.6111111 L35.8382222,33.6468889 L37.5417778,31.4544444 L40.2693333,34.0913333 C40.4022222,34.2195556 40.574,34.284 40.7431111,34.284 C40.9213333,34.284 41.1002222,34.2142222 41.234,34.076 C41.494,33.8035556 41.4893333,33.3733333 41.2162222,33.1093333 L38.3815556,30.3686667 L40.5313333,27.6004444 C42.3784444,25.224 41.9748889,21.814 39.6373333,19.9977778 C38.6968889,19.2671111 37.5677778,18.8793333 36.3733333,18.8793333 C36.2657778,18.8793333 36.1586667,18.8913333 36.0528889,18.898 L37.178,17.5555556 L46.7093333,14.59 C45.0504444,13.8013333 43.27,12.5195556 41.636,10.8302222 C39.6597778,8.78777778 38.2795556,6.55333333 37.6482222,4.60088889 L35.3613333,15.4708889 L29.814,22.0844444 L28.3526667,20.6697778 C28.0817778,20.408 27.6491111,20.4151111 27.3877778,20.6848889 C27.1257778,20.9555556 27.1313333,21.3884444 27.4026667,21.6502222 L28.9351111,23.1328889 L27.1548889,25.2542222 L26.0391111,24.1704444 C25.7682222,23.9091111 25.3355556,23.914 25.0742222,24.1868889 C24.8128889,24.4584444 24.8195556,24.8895556 25.0893333,25.1526667 L26.2813333,26.3042222 L24.5911111,28.3217778 L23.0835556,26.8351111 C22.8151111,26.5693333 22.3826667,26.5728889 22.1177778,26.8422222 C21.852,27.1102222 21.856,27.5413333 22.1244444,27.808 L23.7106667,29.3717778 L15.1217778,39.6133333 C14.2971111,39.0955556 13.382,38.6731111 12.3902222,38.3746667 C7.13333333,36.7913333 1.74644444,39.2468889 0.358,43.8595556 C-1.03222222,48.4722222 2.10088889,53.4946667 7.35577778,55.0808889 C11.0533333,56.1966667 14.81,55.3053333 17.1993333,53.0735556 C21.59,55.3231111 29.4722222,60.272 31.2471111,65.5615556 C31.8233333,67.2768889 31.6744444,68.8326667 30.7802222,70.4557778 C24.6848889,81.5395556 2.85066667,91.9135556 2.62933333,92.0193333 L5.34155556,97.7837778 C6.18933333,97.3857778 23.7222222,89.0582222 32.9148889,78.3897778 C38.5215556,77.4428889 44.3502222,77.1597778 46.8793333,77.6622222 C45.5897778,80.8546667 39.9395556,88.4297778 33.4973333,95.4811111 L38.1982222,99.7822222 C38.3551111,99.6086667 42.0666667,95.5424444 45.7793333,90.8073333 C52.9688889,81.6402222 53.7162222,78.2382222 53.5015556,76.1206667 Z M33.4962222,22.1244444 C34.198,21.2191111 35.2508889,20.6995556 36.3815556,20.6995556 C37.1688889,20.6995556 37.908,20.9542222 38.5268889,21.432 C40.0717778,22.6337778 40.3308889,24.898 39.1022222,26.4822222 L37.0715556,29.0955556 L31.9384444,24.1273333 L33.4962222,22.1244444 Z M31.0955556,25.2124444 L36.2286667,30.1811111 L34.5251111,32.3753333 L29.3904444,27.4066667 L31.0955556,25.2124444 Z M28.5486667,28.49 L33.68,33.4586667 L32.0002222,35.6222222 L26.9082222,30.6008889 L28.5486667,28.49 Z M24.8977778,33.1882222 L26.0648889,31.6862222 L31.1586667,36.7084444 L30.5077778,37.5462222 C30.2655556,37.8551111 29.9833333,38.1135556 29.676,38.3262222 C29.676,38.3262222 29.676,38.3262222 29.148,38.6295556 C28.6748889,38.8495556 28.1566667,38.972 27.6188889,38.972 C26.832,38.972 26.0911111,38.7173333 25.4735556,38.2395556 C23.9257778,37.0346667 23.6675556,34.7706667 24.8977778,33.1882222 Z M23.0346667,48.9977778 C21.7333333,48.2386667 20.584,47.6313333 19.7168889,47.2002222 C19.6751111,45.0726667 18.7711111,42.9991111 17.2317778,41.3493333 L22.3088889,35.2955556 C22.2657778,36.9515556 22.9646667,38.5946667 24.3548889,39.676 C25.2951111,40.4071111 26.424,40.7926667 27.6188889,40.7926667 C28.0033333,40.7926667 28.3784444,40.7486667 28.7462222,40.672 C27.602,44.6568889 24.6944444,47.588 23.0346667,48.9977778 Z" id="Shape"></path>
        </g>
    </g>
</svg>