<?xml version="1.0" encoding="UTF-8"?>
<svg width="101px" height="100px" viewBox="0 0 101 100" version="1.1" xmlns="http://www.w3.org/2000/svg" xmlns:xlink="http://www.w3.org/1999/xlink">
    <!-- Generator: Sketch 46.2 (44496) - http://www.bohemiancoding.com/sketch -->
    <title>Slice 1</title>
    <desc>Created with Sketch.</desc>
    <defs></defs>
    <g id="Page-1" stroke="none" stroke-width="1" fill="none" fill-rule="evenodd">
        <g id="networking" fill-rule="nonzero" fill="#FFFFFF">
            <path d="M17.192623,44.1102459 C17.5204918,44.2946721 17.8688525,44.3971311 18.2172131,44.3971311 C18.954918,44.417623 19.6721311,44.0282787 20.0819672,43.3520492 C20.6557377,42.3479508 20.3278689,41.0569672 19.3237705,40.4831967 C18.3196721,39.8889344 17.0286885,40.2372951 16.454918,41.2413934 C15.8401639,42.225 16.1885246,43.5159836 17.192623,44.1102459 Z" id="Shape"></path>
            <path d="M82.192623,44.4995902 C82.5614754,44.4995902 82.9303279,44.417623 83.2786885,44.2127049 C84.2827869,43.6389344 84.6311475,42.3479508 84.057377,41.3438525 C83.4836066,40.3397541 82.192623,39.9913934 81.1885246,40.5651639 C80.1844262,41.1389344 79.8360656,42.429918 80.4098361,43.4340164 C80.7786885,44.1102459 81.4754098,44.4790984 82.192623,44.4995902 Z" id="Shape"></path>
            <path d="M73.6680328,32.2045082 C74.3442623,31.2618852 74.1598361,29.9504098 73.2172131,29.2536885 C72.2745902,28.577459 70.9631148,28.782377 70.2663934,29.7045082 C69.5901639,30.6471311 69.795082,31.9586066 70.7172131,32.6553279 C71.0860656,32.9217213 71.4959016,33.0446721 71.9262295,33.0651639 C72.5819672,33.0856557 73.2377049,32.7782787 73.6680328,32.2045082 Z" id="Shape"></path>
            <path d="M27.3155738,29.1922131 C26.3729508,29.8684426 26.1680328,31.2004098 26.8442623,32.1430328 C27.2540984,32.6963115 27.8688525,33.0036885 28.5245902,33.0241803 C28.954918,33.0241803 29.4057377,32.9012295 29.795082,32.6348361 C30.7377049,31.9586066 30.942623,30.6266393 30.2663934,29.6840164 C29.5696721,28.7209016 28.2581967,28.5159836 27.3155738,29.1922131 Z" id="Shape"></path>
            <path d="M13.2581967,59.0487705 C13.3196721,59.0487705 13.3811475,59.0692623 13.442623,59.0692623 C14.5286885,59.0897541 15.4508197,58.270082 15.5737705,57.1840164 L15.5737705,57.1635246 C15.5737705,57.1430328 15.5737705,57.1430328 15.5737705,57.122541 C15.6967213,55.9545082 14.8565574,54.929918 13.7090164,54.8069672 C12.5409836,54.6840164 11.5163934,55.5241803 11.3934426,56.6717213 C11.3934426,56.6922131 11.3934426,56.6922131 11.3934426,56.7127049 L11.3934426,56.7331967 C11.25,57.8807377 12.0901639,58.9258197 13.2581967,59.0487705 Z" id="Shape"></path>
            <path d="M36.0245902,92.6348361 C34.9590164,92.1635246 33.7090164,92.6348361 33.2377049,93.7004098 C32.7663934,94.7659836 33.2377049,96.0159836 34.3032787,96.4872951 C34.5696721,96.6102459 34.8565574,96.6717213 35.1229508,96.6717213 C35.942623,96.6922131 36.7213115,96.2209016 37.0901639,95.4217213 C37.5614754,94.3561475 37.0696721,93.1061475 36.0245902,92.6348361 Z" id="Shape"></path>
            <path d="M86.9057377,59.1102459 C86.9877049,59.1102459 87.0696721,59.1102459 87.1721311,59.0897541 C88.3196721,58.9668033 89.1598361,57.9422131 89.057377,56.7741803 C88.9344262,55.6061475 87.9098361,54.7659836 86.7418033,54.8889344 C85.5737705,55.0118852 84.7336066,56.0364754 84.8565574,57.2045082 C84.9590164,58.2905738 85.8606557,59.0897541 86.9057377,59.1102459 Z" id="Shape"></path>
            <path d="M50.1844262,95.6471311 C49.0163934,95.6471311 48.0737705,96.5897541 48.0737705,97.7577869 C48.0737705,98.9053279 48.9959016,99.8479508 50.1434426,99.8684426 C50.1639344,99.8684426 50.1639344,99.8684426 50.1844262,99.8684426 C51.352459,99.8684426 52.295082,98.9258197 52.295082,97.7577869 C52.295082,96.5897541 51.352459,95.6471311 50.1844262,95.6471311 Z" id="Shape"></path>
            <path d="M64.3442623,92.6553279 L64.3442623,92.6553279 C63.2786885,93.1266393 62.807377,94.3766393 63.2786885,95.4422131 C63.6270492,96.2209016 64.3647541,96.6717213 65.1639344,96.6922131 C65.4713115,96.6922131 65.7581967,96.6307377 66.0655738,96.5077869 C67.1311475,96.0364754 67.602459,94.7864754 67.1311475,93.7209016 C66.6598361,92.6553279 65.4098361,92.1840164 64.3442623,92.6553279 Z" id="Shape"></path>
            <path d="M23.75,85.0528689 C20.4098361,83.782377 18.4016393,82.4709016 18.4016393,82.4709016 L15.8401639,90.6061475 L15.4918033,91.7127049 L14.3442623,88.4545082 C16.9877049,84.7659836 14.1393443,84.5815574 13.647541,84.5815574 L13.647541,84.5815574 L13.647541,84.5815574 L13.647541,84.5815574 L13.647541,84.5815574 L13.647541,84.5815574 L13.647541,84.5815574 C13.1557377,84.5815574 10.307377,84.7659836 12.9508197,88.4545082 L11.8032787,91.7127049 L11.454918,90.6061475 L8.87295082,82.4709016 C8.87295082,82.4709016 6.8647541,83.782377 3.52459016,85.0528689 C-0.163934426,86.3848361 0.0819672131,89.417623 0,95.0938525 L13.6270492,95.0938525 L13.6680328,95.0938525 L27.295082,95.0938525 C27.192623,89.417623 27.4180328,86.3848361 23.75,85.0528689 Z" id="Shape"></path>
            <path d="M7.82786885,77.3069672 C8.1147541,79.2127049 9.59016393,81.6512295 12.0286885,82.5118852 C13.0122951,82.8602459 14.1188525,82.8602459 15.102459,82.5118852 C17.4795082,81.6512295 19.0163934,79.2331967 19.3032787,77.327459 C19.6311475,77.3069672 20.0409836,76.8561475 20.4918033,75.2372951 C21.1065574,73.0446721 20.4508197,72.7168033 19.897541,72.7577869 C20,72.4504098 20.0819672,72.1430328 20.1434426,71.8561475 C21.0860656,66.1594262 18.2786885,65.9545082 18.2786885,65.9545082 C18.2786885,65.9545082 17.8278689,65.0528689 16.5983607,64.3766393 C15.7786885,63.8848361 14.6311475,63.5159836 13.1352459,63.6389344 C12.6434426,63.6594262 12.192623,63.7618852 11.7622951,63.9053279 L11.7622951,63.9053279 C11.2090164,64.0897541 10.6967213,64.3561475 10.2459016,64.6840164 C9.67213115,65.032377 9.15983607,65.4831967 8.68852459,65.975 C7.95081967,66.7331967 7.27459016,67.7168033 6.98770492,68.9463115 C6.74180328,69.8684426 6.80327869,70.8110656 7.00819672,71.8356557 L7.00819672,71.8356557 C7.06967213,72.1430328 7.15163934,72.429918 7.25409836,72.7372951 C6.70081967,72.6758197 6.02459016,73.0036885 6.65983607,75.2168033 C7.09016393,76.8356557 7.5204918,77.2864754 7.82786885,77.3069672 Z" id="Shape"></path>
            <path d="M96.9262295,85.0528689 C93.5860656,83.782377 91.5778689,82.4709016 91.5778689,82.4709016 L89.0163934,90.6061475 L88.6680328,91.7127049 L87.5204918,88.4545082 C90.1639344,84.7659836 87.3155738,84.5815574 86.8237705,84.5815574 L86.8237705,84.5815574 L86.8237705,84.5815574 L86.8237705,84.5815574 L86.8237705,84.5815574 L86.8237705,84.5815574 L86.8237705,84.5815574 C86.3319672,84.5815574 83.4836066,84.7659836 86.1270492,88.4545082 L84.9795082,91.7127049 L84.6311475,90.6061475 L82.0491803,82.4709016 C82.0491803,82.4709016 80.0409836,83.782377 76.7008197,85.0528689 C73.0122951,86.3848361 73.2581967,89.417623 73.1762295,95.0938525 L86.8032787,95.0938525 L86.8442623,95.0938525 L100.471311,95.0938525 C100.368852,89.417623 100.594262,86.3848361 96.9262295,85.0528689 Z" id="Shape"></path>
            <path d="M81.0040984,77.3069672 C81.2909836,79.2127049 82.7663934,81.6512295 85.204918,82.5118852 C86.1885246,82.8602459 87.295082,82.8602459 88.2786885,82.5118852 C90.6557377,81.6512295 92.192623,79.2331967 92.4795082,77.327459 C92.807377,77.3069672 93.2172131,76.8561475 93.6680328,75.2372951 C94.2827869,73.0446721 93.6270492,72.7168033 93.0737705,72.7577869 C93.1762295,72.4504098 93.2581967,72.1430328 93.3196721,71.8561475 C94.2622951,66.1594262 91.454918,65.9545082 91.454918,65.9545082 C91.454918,65.9545082 90.9836066,65.0528689 89.7745902,64.3766393 C88.954918,63.8848361 87.807377,63.5159836 86.3114754,63.6389344 C85.8196721,63.6594262 85.3688525,63.7618852 84.9385246,63.9053279 L84.9385246,63.9053279 C84.3852459,64.0897541 83.8729508,64.3561475 83.4221311,64.6840164 C82.8483607,65.032377 82.3360656,65.4831967 81.8647541,65.975 C81.1270492,66.7331967 80.4508197,67.7168033 80.1639344,68.9463115 C79.9180328,69.8684426 79.9795082,70.8110656 80.1844262,71.8356557 L80.1844262,71.8356557 C80.2459016,72.1430328 80.3278689,72.429918 80.4303279,72.7372951 C79.8770492,72.6758197 79.2008197,73.0036885 79.8360656,75.2168033 C80.2663934,76.8356557 80.6762295,77.2864754 81.0040984,77.3069672 Z" id="Shape"></path>
            <path d="M50.2254098,31.6717213 L63.852459,31.6717213 C63.7704918,25.9954918 64.0163934,22.9627049 60.3278689,21.6307377 C56.9877049,20.3602459 54.9795082,19.0487705 54.9795082,19.0487705 L52.397541,27.1840164 L52.0491803,28.2905738 L50.9016393,25.032377 C53.545082,21.3438525 50.6967213,21.1594262 50.204918,21.1594262 L50.204918,21.1594262 L50.204918,21.1594262 L50.204918,21.1594262 L50.204918,21.1594262 L50.204918,21.1594262 L50.204918,21.1594262 C49.7131148,21.1594262 46.8647541,21.3438525 49.5081967,25.032377 L48.3606557,28.2905738 L48.0122951,27.1840164 L45.4303279,19.0487705 C45.4303279,19.0487705 43.4221311,20.3602459 40.0819672,21.6307377 C36.3934426,22.9627049 36.6393443,25.9954918 36.557377,31.6717213 L50.204918,31.6717213 L50.2254098,31.6717213 Z" id="Shape"></path>
            <path d="M44.4262295,13.8848361 C44.7131148,15.7905738 46.1885246,18.2290984 48.6270492,19.0897541 C49.6106557,19.4381148 50.7172131,19.4381148 51.7008197,19.0897541 C54.0778689,18.2290984 55.6147541,15.8110656 55.9016393,13.9053279 C56.2295082,13.8848361 56.6393443,13.4340164 57.0901639,11.8151639 C57.704918,9.62254098 57.0491803,9.29467213 56.4959016,9.33565574 C56.5983607,9.02827869 56.6803279,8.72090164 56.7418033,8.43401639 C57.6844262,2.73729508 54.8770492,2.53237705 54.8770492,2.53237705 C54.8770492,2.53237705 54.4057377,1.6307377 53.1967213,0.954508197 C52.3770492,0.462704918 51.2295082,0.093852459 49.7336066,0.216803279 C49.2418033,0.237295082 48.7909836,0.339754098 48.3606557,0.483196721 L48.3606557,0.483196721 C47.807377,0.667622951 47.295082,0.934016393 46.8442623,1.26188525 C46.2704918,1.6102459 45.7581967,2.06106557 45.2868852,2.55286885 C44.5491803,3.31106557 43.8729508,4.29467213 43.5860656,5.52418033 C43.3401639,6.44631148 43.4016393,7.38893443 43.6065574,8.41352459 L43.6065574,8.41352459 C43.6680328,8.72090164 43.75,9.00778689 43.852459,9.31516393 C43.2991803,9.25368852 42.6229508,9.58155738 43.2581967,11.7946721 C43.6885246,13.4135246 44.0983607,13.8643443 44.4262295,13.8848361 Z" id="Shape"></path>
            <path d="M50.2254098,45.9545082 C41.352459,45.9545082 34.1393443,53.167623 34.1393443,62.0405738 C34.1393443,70.9135246 41.352459,78.1266393 50.2254098,78.1266393 C59.0983607,78.1266393 66.3114754,70.9135246 66.3114754,62.0405738 C66.3114754,53.167623 59.0778689,45.9545082 50.2254098,45.9545082 Z M45.4713115,51.0364754 C44.4877049,52.4094262 43.545082,54.1307377 42.8893443,56.2413934 L39.7336066,56.2413934 C41.0040984,53.9463115 43.0327869,52.1020492 45.4713115,51.0364754 Z M38.7295082,65.4422131 C38.4016393,64.3561475 38.2377049,63.2290984 38.2377049,62.0405738 C38.2377049,60.8520492 38.4221311,59.725 38.7295082,58.6389344 L42.3360656,58.6389344 C42.1516393,59.7045082 42.0491803,60.8315574 42.0491803,62.0405738 C42.0491803,63.2495902 42.1516393,64.3766393 42.3360656,65.4422131 L38.7295082,65.4422131 Z M39.7336066,67.8602459 L42.8893443,67.8602459 C43.545082,69.9709016 44.4877049,71.6922131 45.4713115,73.0651639 C43.0327869,71.9995902 41.0040984,70.1553279 39.7336066,67.8602459 Z M49.0163934,73.5159836 C47.8483607,72.3479508 46.3934426,70.4831967 45.4508197,67.8602459 L49.0163934,67.8602459 L49.0163934,73.5159836 Z M49.0163934,65.4422131 L44.795082,65.4422131 C44.5901639,64.3971311 44.4672131,63.270082 44.4672131,62.0405738 C44.4672131,60.8110656 44.5901639,59.6840164 44.795082,58.6389344 L49.0368852,58.6389344 L49.0368852,65.4422131 L49.0163934,65.4422131 L49.0163934,65.4422131 Z M49.0163934,56.2413934 L45.4303279,56.2413934 C46.3729508,53.5979508 47.8483607,51.7331967 49.0163934,50.5651639 L49.0163934,56.2413934 Z M60.6967213,56.2413934 L57.5409836,56.2413934 C56.8852459,54.1307377 55.942623,52.4094262 54.9590164,51.0364754 C57.397541,52.1020492 59.4262295,53.9463115 60.6967213,56.2413934 Z M51.4139344,50.5856557 C52.5819672,51.7536885 54.0368852,53.6184426 54.9795082,56.2413934 L51.4139344,56.2413934 L51.4139344,50.5856557 Z M51.4139344,58.6594262 L55.6352459,58.6594262 C55.8401639,59.7045082 55.9631148,60.8315574 55.9631148,62.0610656 C55.9631148,63.2905738 55.8401639,64.417623 55.6352459,65.4627049 L51.3934426,65.4627049 L51.3934426,58.6594262 L51.4139344,58.6594262 L51.4139344,58.6594262 Z M51.4139344,67.8602459 L55,67.8602459 C54.057377,70.5036885 52.5819672,72.3684426 51.4139344,73.5364754 L51.4139344,67.8602459 L51.4139344,67.8602459 Z M54.9590164,73.0651639 C55.942623,71.6922131 56.8852459,69.9709016 57.5409836,67.8602459 L60.6967213,67.8602459 C59.4262295,70.1553279 57.397541,71.9995902 54.9590164,73.0651639 Z M58.0942623,65.4422131 C58.2786885,64.3766393 58.3811475,63.2495902 58.3811475,62.0405738 C58.3811475,60.8315574 58.2786885,59.7045082 58.0942623,58.6389344 L61.7008197,58.6389344 C62.0286885,59.725 62.192623,60.8520492 62.192623,62.0405738 C62.192623,63.2290984 62.0081967,64.3561475 61.7008197,65.4422131 L58.0942623,65.4422131 Z" id="Shape"></path>
        </g>
    </g>
</svg>