<?xml version="1.0" encoding="UTF-8"?>
<svg width="93px" height="80px" viewBox="0 0 93 80" version="1.1" xmlns="http://www.w3.org/2000/svg" xmlns:xlink="http://www.w3.org/1999/xlink">
    <!-- Generator: Sketch 46.2 (44496) - http://www.bohemiancoding.com/sketch -->
    <title>Slice 1</title>
    <desc>Created with Sketch.</desc>
    <defs></defs>
    <g id="Page-1" stroke="none" stroke-width="1" fill="none" fill-rule="evenodd">
        <g id="donation" fill-rule="nonzero" fill="#FFFFFF">
            <path d="M22.741875,33.053125 C23.228125,33.3365625 23.7715625,33.478125 24.3153125,33.478125 C24.8590625,33.478125 25.4025,33.3365625 25.8890625,33.053125 C27.75125,31.9675 44.0825,22.1490625 44.0825,11.7790625 C44.0825,5.436875 38.9471875,0.276875 32.6353125,0.276875 C29.360625,0.276875 26.4034375,1.6659375 24.315,3.88875 C22.2265625,1.66625 19.2690625,0.276875 15.9940625,0.276875 C9.681875,0.276875 4.54625,5.436875 4.54625,11.7790625 C4.54625,22.1490625 20.879375,31.9675 22.741875,33.053125 Z M15.9940625,6.526875 C18.859375,6.526875 21.1903125,8.8828125 21.1903125,11.7790625 C21.1903125,13.5046875 22.5896875,14.9040625 24.3153125,14.9040625 C26.0409375,14.9040625 27.4403125,13.5046875 27.4403125,11.7790625 C27.4403125,8.8828125 29.770625,6.526875 32.6353125,6.526875 C35.5009375,6.526875 37.8325,8.8828125 37.8325,11.7790625 C37.8325,16.476875 30.100625,22.999375 24.3153125,26.690625 C18.5290625,22.9996875 10.79625,16.4771875 10.79625,11.7790625 C10.79625,8.8828125 13.128125,6.526875 15.9940625,6.526875 Z" id="Shape"></path>
            <path d="M91.4334375,48.7684375 L79.27875,36.614375 C76.8671875,34.2028125 72.476875,32.3846875 69.0671875,32.3846875 L37.1921875,32.3846875 C32.884375,32.3846875 29.3796875,35.889375 29.3796875,40.1971875 L29.3796875,41.1346875 C29.3796875,45.4425 32.884375,48.9471875 37.1921875,48.9471875 L45.585,48.9471875 L43.921875,50.6103125 C42.78625,51.7465625 40.21,52.604375 38.6184375,52.378125 L11.805625,48.5475 C8.2778125,48.04375 4.0353125,49.2471875 1.935625,51.3465625 C0.63125,52.6509375 0.07375,54.3884375 0.40625,56.1134375 C0.79625,58.138125 2.3409375,59.86625 4.645,60.8534375 L32.1215625,72.6290625 C35.13,73.9184375 39.7925,74.2915625 42.9665625,73.498125 L54.4965625,70.6153125 C57.19375,69.9409375 61.2971875,68.5290625 63.8384375,67.4009375 L66.88375,66.0490625 C68.0090625,65.549375 69.9296875,65.950625 70.76125,66.858125 L81.7625,78.87 C82.3790625,79.543125 83.2221875,79.884375 84.068125,79.884375 C84.821875,79.884375 85.578125,79.613125 86.1778125,79.0640625 C87.450625,77.8984375 87.5375,75.92125 86.371875,74.64875 L75.3703125,62.6365625 C72.7446875,59.7690625 67.9028125,58.75875 64.3478125,60.3365625 L61.3025,61.6884375 C59.114375,62.6596875 55.3034375,63.97125 52.980625,64.551875 L41.450625,67.4346875 C39.605,67.89625 36.3325,67.63375 34.58375,66.8840625 L7.333125,55.2053125 C8.2896875,54.8284375 9.695625,54.559375 10.9225,54.734375 L37.7353125,58.565 C41.2634375,59.0709375 45.8225,57.54875 48.3415625,55.029375 L52.025,51.3459375 C54.5915625,48.779375 54.0278125,46.4721875 53.66625,45.599375 C53.3046875,44.7265625 52.071875,42.6965625 48.4421875,42.6965625 L37.1921875,42.6965625 C36.3453125,42.6965625 35.6296875,41.9809375 35.6296875,41.1340625 L35.6296875,40.1965625 C35.6296875,39.3496875 36.3453125,38.6340625 37.1921875,38.6340625 L69.0671875,38.6340625 C70.8109375,38.6340625 73.62625,39.8 74.859375,41.0334375 L87.01375,53.1878125 C88.234375,54.4078125 90.2125,54.4078125 91.4334375,53.1878125 C92.65375,51.9675 92.65375,49.98875 91.4334375,48.7684375 Z" id="Shape"></path>
        </g>
    </g>
</svg>