<?xml version="1.0" encoding="UTF-8"?>
<svg width="98px" height="100px" viewBox="0 0 98 100" version="1.1" xmlns="http://www.w3.org/2000/svg" xmlns:xlink="http://www.w3.org/1999/xlink">
    <!-- Generator: Sketch 46.2 (44496) - http://www.bohemiancoding.com/sketch -->
    <title>Slice 1</title>
    <desc>Created with Sketch.</desc>
    <defs></defs>
    <g id="Page-1" stroke="none" stroke-width="1" fill="none" fill-rule="evenodd">
        <g id="man-in-a-party-dancing-with-people" fill-rule="nonzero" fill="#FFFFFF">
            <path d="M34.0969534,55.6166667 L34.0969534,68.8591398 C34.0969534,69.9250896 34.9611111,70.7894265 36.0277778,70.7894265 C37.0944444,70.7894265 37.9586022,69.9250896 37.9586022,68.8591398 L37.9586022,56.8268817 L31.8424731,50.3713262 C30.5066308,48.9609319 29.9795699,46.9910394 30.4331541,45.1019713 L31.9050179,38.9688172 L30.184767,38.9688172 L31.4750896,37.0116487 C31.7471326,37.1360215 32.0333333,37.2342294 32.333871,37.2951613 C32.6442652,36.378853 33.1706093,35.5786738 33.8480287,34.9469534 C34.7358423,34.1198925 35.8826165,33.5858423 37.1383513,33.4535842 C37.3263441,33.433871 37.516129,33.421147 37.709319,33.4200717 L37.709319,27.1021505 C37.709319,26.0360215 36.8449821,25.1718638 35.7790323,25.1718638 C34.7130824,25.1718638 33.8487455,26.0367384 33.8487455,27.1021505 L33.8487455,29.4317204 C33.6179211,29.3901434 33.3810036,29.3646953 33.1379928,29.3646953 C32.8933692,29.3646953 32.6553763,29.3899642 32.4229391,29.4320789 L32.4229391,23.9351254 C32.4229391,22.8689964 31.5587814,22.0048387 30.4921147,22.0048387 C29.4261649,22.0048387 28.561828,22.8689964 28.561828,23.9351254 L28.561828,34.4170251 L27.6268817,35.8356631 L26.6919355,34.4170251 L26.6919355,23.9351254 C26.6919355,22.8689964 25.8275986,22.0048387 24.7616487,22.0048387 C23.6956989,22.0048387 22.831362,22.8689964 22.831362,23.9351254 L22.831362,29.4320789 C22.5989247,29.3905018 22.3609319,29.3646953 22.1163082,29.3646953 C21.6232975,29.3646953 21.1528674,29.4580645 20.7163082,29.6213262 L20.7163082,20.6448029 C20.7163082,19.5786738 19.8519713,18.7145161 18.7854839,18.7145161 C17.7189964,18.7145161 16.8551971,19.578853 16.8551971,20.6448029 L16.8551971,31.1267025 L15.6700717,32.9249104 L15.6700717,23.9351254 C15.6700717,22.8689964 14.8057348,22.0048387 13.7397849,22.0048387 C12.6738351,22.0048387 11.8094982,22.8689964 11.8094982,23.9351254 L11.8094982,26.3310036 C11.3729391,26.1681004 10.9030466,26.0743728 10.4094982,26.0743728 C8.19731183,26.0743728 6.40394265,27.8675627 6.40394265,30.0797491 C6.40394265,32.2919355 8.19713262,34.0853047 10.4094982,34.0853047 C10.902509,34.0853047 11.3729391,33.9919355 11.8094982,33.8286738 L11.8094982,34.9956989 C11.8094982,35.2304659 11.8571685,35.4607527 11.9394265,35.677957 L10.4094982,35.677957 L6.96272401,35.677957 L3.9625448,31.1263441 L3.9625448,20.6451613 C3.9625448,19.5790323 3.09820789,18.7148746 2.03225806,18.7148746 C0.966308244,18.7148746 0.101792115,19.578853 0.101792115,20.6448029 L0.101792115,31.7057348 C0.101792115,32.0835125 0.212544803,32.452509 0.420430108,32.7679211 L5.62670251,40.6668459 L5.62670251,49.105914 C5.60197133,49.2297491 5.58835125,49.3575269 5.58835125,49.4887097 L5.58835125,65.5689964 C5.58835125,66.6351254 6.45250896,67.4992832 7.51863799,67.4992832 C8.58476703,67.4992832 9.44946237,66.6351254 9.44946237,65.5689964 L9.44946237,52.3261649 L10.4091398,52.3261649 L11.3688172,52.3261649 L11.3688172,65.568638 C11.3688172,66.634767 12.2331541,67.4989247 13.2996416,67.4989247 C14.366129,67.4989247 15.2304659,66.634767 15.2304659,65.568638 L15.2304659,49.4883513 C15.2304659,49.3573477 15.2168459,49.2295699 15.1921147,49.1055556 L15.1921147,40.7064516 L17.3345878,43.95681 L17.3345878,52.3958781 C17.3098566,52.5197133 17.2962366,52.647491 17.2962366,52.7786738 L17.2962366,68.8591398 C17.2962366,69.9250896 18.1603943,70.7894265 19.2270609,70.7894265 C20.29319,70.7894265 21.1573477,69.9250896 21.1573477,68.8591398 L21.1573477,55.6166667 L22.1170251,55.6166667 L23.0767025,55.6166667 L23.0767025,68.8591398 C23.0767025,69.9250896 23.9408602,70.7894265 25.0069892,70.7894265 C26.0731183,70.7894265 26.937276,69.9250896 26.937276,68.8591398 L26.937276,52.7786738 C26.937276,52.6476703 26.9234767,52.5198925 26.8989247,52.3958781 L26.8989247,43.95681 L27.6277778,42.8507168 L28.3564516,43.95681 L28.3564516,52.3958781 C28.3317204,52.5197133 28.3181004,52.647491 28.3181004,52.7786738 L28.3181004,68.8591398 C28.3181004,69.9250896 29.1822581,70.7894265 30.2483871,70.7894265 C31.3145161,70.7894265 32.1792115,69.9250896 32.1792115,68.8591398 L32.1792115,55.6166667 L33.1388889,55.6166667 L34.0969534,55.6166667 L34.0969534,55.6166667 Z M22.1146953,38.968638 L18.6684588,38.968638 L17.4888889,37.1786738 L18.6636201,35.3964158 C19.3600358,36.5792115 20.6426523,37.375448 22.1145161,37.375448 C22.7084229,37.375448 23.2695341,37.2426523 23.7767025,37.0112903 L25.0670251,38.9684588 L22.1146953,38.9684588 L22.1146953,38.968638 Z" id="Shape"></path>
            <path d="M42.1105735,35.4550179 C42.3089606,35.1376344 42.5218638,34.8304659 42.7548387,34.5397849 C42.972043,34.2688172 43.1996416,34.0073477 43.4442652,33.7616487 C43.8736559,33.3301075 44.3437276,32.9401434 44.8476703,32.5958781 C45.3987455,32.2197133 45.9915771,31.9016129 46.6163082,31.6449821 L46.6163082,28.5492832 C46.6163082,27.4833333 45.7519713,26.6189964 44.6860215,26.6189964 C44.2105735,26.6189964 43.7806452,26.7978495 43.4444444,27.0822581 L43.4444444,23.9351254 C43.4444444,22.8689964 42.5801075,22.0048387 41.5136201,22.0048387 C40.4471326,22.0048387 39.5833333,22.8689964 39.5833333,23.9351254 L39.5833333,33.7259857 C40.0263441,33.8756272 40.4383513,34.0784946 40.8193548,34.322043 C41.309319,34.634767 41.7424731,35.0179211 42.1105735,35.4550179 Z" id="Shape"></path>
            <polygon id="Shape" points="40.8426523 59.872043 39.3340502 58.2795699 39.3340502 69.8077061 40.8426523 67.9639785"></polygon>
            <path d="M95.1854839,20.1611111 C94.1197133,20.1611111 93.2551971,21.025448 93.2551971,22.0913978 L93.2551971,32.5732975 L90.2551971,37.1249104 L86.8091398,37.1249104 L85.2792115,37.1249104 C85.3614695,36.9071685 85.4091398,36.6774194 85.4091398,36.4426523 L85.4091398,35.2756272 C85.8456989,35.4385305 86.3157706,35.5322581 86.8086022,35.5322581 C89.0207885,35.5322581 90.8139785,33.7390681 90.8139785,31.5268817 C90.8139785,29.3146953 89.0207885,27.5213262 86.8086022,27.5213262 C86.3157706,27.5213262 85.8449821,27.6146953 85.4091398,27.777957 L85.4091398,25.3820789 C85.4091398,24.3159498 84.5449821,23.4517921 83.4781362,23.4517921 C82.4123656,23.4517921 81.5480287,24.3159498 81.5480287,25.3820789 L81.5480287,34.3724014 L80.3621864,32.5741935 L80.3621864,22.0912186 C80.3621864,21.0250896 79.4980287,20.1609319 78.4320789,20.1609319 C77.3659498,20.1609319 76.5010753,21.0252688 76.5010753,22.0912186 L76.5010753,31.0677419 C76.0645161,30.9048387 75.5944444,30.8111111 75.1010753,30.8111111 C74.85681,30.8111111 74.6188172,30.8363799 74.3860215,30.8784946 L74.3860215,25.3817204 C74.3860215,24.3155914 73.5218638,23.4514337 72.4557348,23.4514337 C71.3899642,23.4514337 70.5256272,24.3155914 70.5256272,25.3817204 L70.5256272,35.8636201 L69.5903226,37.2822581 L69.4433692,37.0596774 L69.4433692,37.5050179 L69.4433692,44.0752688 L69.4433692,44.5206093 L69.5903226,44.2980287 L70.3189964,45.4041219 L70.3189964,53.84319 C70.2944444,53.9670251 70.2808244,54.0948029 70.2808244,54.2259857 L70.2808244,70.3064516 C70.2808244,71.3724014 71.1449821,72.2367384 72.2114695,72.2367384 C73.2775986,72.2367384 74.1417563,71.3724014 74.1417563,70.3064516 L74.1417563,57.0639785 L75.1014337,57.0639785 L76.0611111,57.0639785 L76.0611111,70.3064516 C76.0611111,71.3724014 76.9252688,72.2367384 77.9912186,72.2367384 C79.0573477,72.2367384 79.9222222,71.3724014 79.9222222,70.3064516 L79.9222222,54.2258065 C79.9222222,54.0948029 79.9086022,53.9670251 79.8836918,53.8430108 L79.8836918,45.4039427 L82.0261649,42.1535842 L82.0261649,50.5528674 C82.0016129,50.6767025 81.9879928,50.8044803 81.9879928,50.9356631 L81.9879928,67.0159498 C81.9879928,68.0820789 82.8521505,68.9462366 83.918638,68.9462366 C84.9851254,68.9462366 85.8489247,68.0820789 85.8489247,67.0159498 L85.8489247,53.7734767 L86.8086022,53.7734767 L87.7681004,53.7734767 L87.7681004,67.0159498 C87.7681004,68.0820789 88.6326165,68.9462366 89.6991039,68.9462366 C90.7655914,68.9462366 91.6293907,68.0820789 91.6293907,67.0159498 L91.6293907,50.9356631 C91.6293907,50.8046595 91.6157706,50.6768817 91.5908602,50.5528674 L91.5908602,42.1136201 L96.7971326,34.2146953 C97.0050179,33.8992832 97.1159498,33.5302867 97.1159498,33.152509 L97.1159498,22.0915771 C97.1164875,21.0259857 96.2523297,20.1611111 95.1854839,20.1611111 Z M78.5485663,40.4157706 L75.102509,40.4157706 L72.1505376,40.4157706 L73.4410394,38.4586022 C73.947491,38.6905018 74.509319,38.8227599 75.1032258,38.8227599 C76.5750896,38.8227599 77.8582437,38.0265233 78.5541219,36.8437276 L79.728853,38.6259857 L78.5485663,40.4157706 Z" id="Shape"></path>
            <path d="M68.8623656,47.187276 C68.7544803,47.4087814 68.6376344,47.6259857 68.5003584,47.833871 L60.9198925,59.3351254 L60.9198925,71.3014337 C60.9594982,71.574552 60.9797491,71.85 60.9797491,72.1224014 L60.9797491,72.2150538 C61.0494624,72.2227599 61.1179211,72.2365591 61.1897849,72.2365591 C62.255914,72.2365591 63.1200717,71.3722222 63.1200717,70.3062724 L63.1200717,57.0637993 L64.0797491,57.0637993 L65.0394265,57.0637993 L65.0394265,70.3062724 C65.0394265,71.3722222 65.9035842,72.2365591 66.9700717,72.2365591 C68.0365591,72.2365591 68.9003584,71.3722222 68.9003584,70.3062724 L68.9003584,54.2258065 C68.9003584,54.0948029 68.8867384,53.9670251 68.861828,53.8430108 L68.861828,47.187276 L68.8623656,47.187276 Z" id="Shape"></path>
            <path d="M57.6336918,25.3817204 C57.6336918,24.3155914 56.7695341,23.4514337 55.703405,23.4514337 C54.6376344,23.4514337 53.7727599,24.3155914 53.7727599,25.3817204 L53.7727599,25.6345878 C53.4360215,25.3494624 53.0066308,25.171147 52.5311828,25.171147 C51.4650538,25.171147 50.6008961,26.0360215 50.6008961,27.1014337 L50.6008961,30.9422939 C51.7168459,30.9822581 52.784767,31.2105735 53.7727599,31.6014337 C54.0073477,31.694086 54.2362007,31.7983871 54.4616487,31.9084229 C55.6860215,32.5084229 56.768638,33.3523297 57.6335125,34.3894265 L57.6335125,25.3817204 L57.6336918,25.3817204 Z" id="Shape"></path>
            <path d="M15.9820789,16.9125448 C17.1336918,15.4012545 17.1853047,13.2756272 16.2331541,11.6129032 C15.2032258,9.81469534 10.7021505,6.38960573 13.1879928,4.39713262 C14.5677419,3.29103943 12.6143369,1.36397849 11.2489247,2.45806452 C9.63010753,3.75555556 9.47598566,5.74731183 10.0392473,7.63369176 C10.7899642,10.1469534 15.7216846,12.7621864 13.6146953,15.5283154 C12.5419355,16.9354839 14.9252688,18.2987455 15.9820789,16.9125448 Z" id="Shape"></path>
            <path d="M87.459319,5.19444444 C89.2184588,5.01630824 88.6267025,2.33691756 86.8863799,2.51290323 C84.8218638,2.7218638 83.6102151,4.309319 83.0575269,6.19910394 C82.321147,8.71666667 85.0387097,13.5930108 81.7666667,14.768638 C80.1016129,15.3668459 81.3605735,17.8066308 83.0008961,17.2172043 C84.7892473,16.574552 85.9879928,14.8184588 86.0930108,12.9057348 C86.2055556,10.8369176 84.2896057,5.51541219 87.459319,5.19444444 Z" id="Shape"></path>
            <path d="M33.7541219,16.6107527 C34.0485663,18.5037634 35.4163082,20.1324373 37.2594982,20.5937276 C38.9507168,21.0170251 39.9609319,18.4643369 38.2449821,18.0344086 C34.8718638,17.1894265 37.0912186,12.0673835 36.1086022,9.63530466 C35.3709677,7.80967742 34.0071685,6.35035842 31.9320789,6.34767025 C30.1827957,6.34551971 29.8598566,9.07043011 31.6283154,9.07258065 C34.8130824,9.07759857 33.4360215,14.5637993 33.7541219,16.6107527 Z" id="Shape"></path>
            <path d="M67.2637993,6.78333333 C68.0698925,4.98673835 68.1786738,2.99229391 66.7433692,1.49354839 C65.5336918,0.229569892 63.3439068,1.88405018 64.5668459,3.16129032 C66.7698925,5.46236559 61.8584229,8.26792115 60.6014337,9.91523297 C59.4394265,11.4385305 59.211828,13.5526882 60.1555556,15.2021505 C61.021147,16.7150538 63.5623656,15.6765233 62.6844086,14.1405018 C60.9580645,11.1225806 66.1903226,9.17706093 67.2637993,6.78333333 Z" id="Shape"></path>
            <path d="M42.5112903,9.65681004 C43.2455197,11.4265233 44.9603943,12.6845878 46.8600358,12.6958781 C48.603405,12.70681 48.9801075,9.9874552 47.2109319,9.97598566 C43.7336918,9.95394265 44.6768817,4.45197133 43.1456989,2.32222222 C41.9962366,0.72311828 40.3258065,-0.371505376 38.3094982,0.117741935 C36.6089606,0.530107527 36.940681,3.25394265 38.659319,2.83709677 C41.7562724,2.08691756 41.7172043,7.74301075 42.5112903,9.65681004 Z" id="Shape"></path>
            <path d="M23.1412186,17.155914 C25.6166667,17.155914 25.6166667,13.3172043 23.1412186,13.3172043 C20.6657706,13.3172043 20.6657706,17.155914 23.1412186,17.155914 Z" id="Shape"></path>
            <path d="M4.7702509,11.672043 C7.24551971,11.672043 7.24551971,7.83333333 4.7702509,7.83333333 C2.29480287,7.83333333 2.29480287,11.672043 4.7702509,11.672043 Z" id="Shape"></path>
            <path d="M56.318638,2.89784946 C53.8433692,2.89784946 53.8433692,6.73655914 56.318638,6.73655914 C58.7939068,6.73655914 58.7939068,2.89784946 56.318638,2.89784946 Z" id="Shape"></path>
            <path d="M52.7539427,16.6075269 C55.2295699,16.6075269 55.2295699,12.7688172 52.7539427,12.7688172 C50.2786738,12.7688172 50.2786738,16.6075269 52.7539427,16.6075269 Z" id="Shape"></path>
            <path d="M73.8670251,10.8496416 C76.3422939,10.8496416 76.3422939,7.0109319 73.8670251,7.0109319 C71.3917563,7.0109319 71.3915771,10.8496416 73.8670251,10.8496416 Z" id="Shape"></path>
            <path d="M95.802509,11.1236559 C93.3272401,11.1236559 93.3272401,14.9623656 95.802509,14.9623656 C98.2777778,14.9623656 98.277957,11.1236559 95.802509,11.1236559 Z" id="Shape"></path>
            <path d="M59.2591398,56.8724014 L66.2109319,46.3252688 C66.5318996,45.8388889 66.7023297,45.2689964 66.7023297,44.6867384 L66.7023297,40.4164875 L66.7023297,39.9163082 L66.7023297,37.8412186 L66.7023297,31.7948029 L66.7023297,23.6715054 C66.7023297,23.5985663 66.6967742,23.5267025 66.6913978,23.4550179 C66.5801075,21.911828 65.2955197,20.6933692 63.7232975,20.6933692 C62.0781362,20.6933692 60.7453405,22.0270609 60.7453405,23.6716846 L60.7453405,26.752509 L60.7453405,32.6 L60.7453405,37.0353047 L60.7453405,40.416129 L60.7453405,43.79319 L59.2973118,45.9894265 L56.1170251,50.8157706 L48.937276,50.8157706 L48.2802867,50.8157706 L44.2469534,50.8157706 L39.2693548,45.5611111 L40.2564516,41.4487455 L40.6437276,39.8358423 C40.6448029,39.8302867 40.6453405,39.8243728 40.6469534,39.8188172 C40.6650538,39.7403226 40.6793907,39.6620072 40.6908602,39.5840502 C40.6946237,39.5451613 40.7012545,39.5073477 40.7057348,39.4682796 C40.744086,39.1267025 40.7216846,38.7894265 40.6464158,38.4675627 C40.5752688,38.1620072 40.4584229,37.8704301 40.2982079,37.6044803 C39.9005376,36.9448029 39.2501792,36.438172 38.4424731,36.2439068 C38.4232975,36.2396057 38.4046595,36.2378136 38.3854839,36.2335125 C38.1698925,36.1858423 37.9550179,36.1600358 37.7428315,36.1600358 C37.731362,36.1600358 37.7204301,36.1629032 37.7089606,36.1629032 C36.377957,36.1781362 35.1759857,37.0912186 34.8512545,38.444086 L34.7256272,38.9677419 L34.5315412,39.7770609 L33.1003584,45.7408602 C32.8650538,46.7207885 33.1413978,47.753405 33.8340502,48.4849462 L37.9584229,52.8392473 L39.3732975,54.3329749 L43.584767,58.7793907 L43.584767,58.7831541 L43.584767,68.9424731 L43.1955197,69.4179211 L39.9270609,73.4123656 L33.6908602,81.0354839 C32.6933692,82.2557348 32.8177419,84.0410394 33.9759857,85.1109319 L41.5645161,92.116129 C42.1370968,92.6448029 42.8614695,92.9057348 43.5836918,92.9057348 C44.3860215,92.9057348 45.1860215,92.5833333 45.7727599,91.9476703 C46.8887097,90.7385305 46.8130824,88.8548387 45.6044803,87.7383513 L40.0777778,82.6365591 L45.0983871,76.5014337 L52.2810036,76.5014337 L52.2810036,96.9331541 C52.2810036,98.5777778 53.6148746,99.9114695 55.259319,99.9114695 C56.9041219,99.9114695 58.2376344,98.5777778 58.2376344,96.9331541 L58.2376344,72.1231183 C58.2376344,71.9207885 58.2163082,71.7229391 58.1777778,71.5318996 L58.1777778,58.5137993 L59.2591398,56.8724014 Z" id="Shape"></path>
            <path d="M43.5790323,42.1354839 C44.034767,44.0428315 45.2795699,45.6424731 46.9560932,46.5621864 C47.5659498,46.896595 48.2327957,47.1396057 48.9374552,47.2761649 C49.3641577,47.3589606 49.803405,47.4055556 50.2535842,47.4055556 C52.9516129,47.4055556 55.2795699,45.8458781 56.4030466,43.5827957 C56.665233,43.0546595 56.8672043,42.4915771 56.9865591,41.8969534 C57.0750896,41.4571685 57.1227599,41.0019713 57.1227599,40.5358423 C57.1227599,39.9989247 57.0548387,39.4792115 56.9383513,38.977957 C56.5763441,37.4188172 55.6856631,36.0659498 54.4620072,35.1150538 C54.2424731,34.9444444 54.0121864,34.788172 53.7731183,34.6449821 C53.3569892,34.3960573 52.9137993,34.188172 52.446595,34.0308244 C51.862724,33.833871 51.2435484,33.7166667 50.6014337,33.6842294 C50.4856631,33.6781362 50.371147,33.6666667 50.2537634,33.6666667 C49.255914,33.6666667 48.3098566,33.8844086 47.4543011,34.2672043 C47.1630824,34.3971326 46.8845878,34.5485663 46.6163082,34.7163082 C44.8768817,35.805914 43.6584229,37.6473118 43.4263441,39.7894265 C43.422043,39.8283154 43.4215054,39.8672043 43.4159498,39.9060932 C43.3989247,40.0908602 43.3896057,40.277957 43.3874552,40.4664875 C43.3874552,40.4894265 43.3840502,40.5120072 43.3840502,40.5356631 C43.3840502,40.7577061 43.3967742,40.9765233 43.4175627,41.19319 C43.4480287,41.515233 43.5055556,41.8284946 43.5790323,42.1354839 Z" id="Shape"></path>
        </g>
    </g>
</svg>